<svg width="1500" height="1089" viewBox="0 0 1500 1089" fill="none" xmlns="http://www.w3.org/2000/svg">
<rect y="289" width="1500" height="800" fill="white"/>
<path fill-rule="evenodd" clip-rule="evenodd" d="M0 166.94L15 174.275C30 181.611 58.75 196.281 88.75 232.958C117.5 269.635 147.5 328.317 176.25 350.323C206.25 372.329 235 357.659 265 306.311C293.75 254.964 323.75 166.94 352.5 159.604C382.5 152.269 411.25 225.623 441.25 218.287C470 210.952 500 122.928 530 130.263C558.75 137.598 588.75 240.293 617.5 232.958C647.5 225.623 676.25 108.257 706.25 64.2451C735 20.2331 765 49.5744 793.75 64.2451C823.75 78.9158 852.5 78.9158 882.5 78.9158C911.25 78.9158 941.25 78.9158 970 130.263C1000 181.611 1030 284.305 1058.75 306.311C1088.75 328.317 1117.5 269.635 1147.5 254.964C1176.25 240.293 1206.25 269.635 1235 232.958C1265 196.281 1293.75 93.5864 1323.75 86.2511C1352.5 78.9158 1382.5 166.94 1411.25 196.281C1441.25 225.623 1470 196.281 1485 181.611L1500 166.94V387H1485C1470 387 1441.25 387 1411.25 387C1382.5 387 1352.5 387 1323.75 387C1293.75 387 1265 387 1235 387C1206.25 387 1176.25 387 1147.5 387C1117.5 387 1088.75 387 1058.75 387C1030 387 1000 387 970 387C941.25 387 911.25 387 882.5 387C852.5 387 823.75 387 793.75 387C765 387 735 387 706.25 387C676.25 387 647.5 387 617.5 387C588.75 387 558.75 387 530 387C500 387 470 387 441.25 387C411.25 387 382.5 387 352.5 387C323.75 387 293.75 387 265 387C235 387 206.25 387 176.25 387C147.5 387 117.5 387 88.75 387C58.75 387 30 387 15 387H0V166.94Z" fill="white" fill-opacity="0.38"/>
<path d="M26.5821 379.05C17.7214 380.283 8.8607 380.35 0 379.05H26.5821C110.388 367.394 194.194 251.512 278 202.339C370.667 147.966 463.333 80 556 80C648.667 80 741.333 147.966 787.667 181.949L834 215.932V379.05H787.667H556H278H26.5821Z" fill="white" fill-opacity="0.84"/>
<path fill-rule="evenodd" clip-rule="evenodd" d="M0 70.9091L62.5 115.227C125 159.545 250 248.182 375 265.909C500 283.636 625 230.455 750 159.545C875 88.6364 1000 0 1125 0C1250 0 1375 88.6364 1437.5 132.955L1500 177.273V390H1437.5C1375 390 1250 390 1125 390C1000 390 875 390 750 390C625 390 500 390 375 390C250 390 125 390 62.5 390H0V70.9091Z" fill="white"/>
</svg>
